<svg xmlns="http://www.w3.org/2000/svg" width="335" height="254.505" viewBox="0 0 335 254.505"><g transform="translate(-20 -11058.495)"><rect width="335" height="193" rx="15" transform="translate(20 11089)" fill="#efefef"/><g transform="translate(146 11295)" fill="none" stroke="#000" stroke-width="1"><rect width="77" height="18" stroke="none"/><rect x="0.5" y="0.5" width="76" height="17" fill="none"/></g><g transform="translate(143 11064)" fill="#e66969" stroke="#000" stroke-width="1"><rect width="80" height="20" stroke="none"/><rect x="0.5" y="0.5" width="79" height="19" fill="none"/></g><text transform="translate(149 11078)" fill="#fff" font-size="10" font-family="HiraginoSans-W6, Hiragino Sans"><tspan x="0" y="0">オフライン学習</tspan></text><text transform="translate(150 11308)" font-size="10" font-family="HiraginoSans-W6, Hiragino Sans"><tspan x="0" y="0">オンライン学習</tspan></text><text transform="translate(23 11127)" font-size="8" font-family="HiraginoSans-W3, Hiragino Sans"><tspan x="0" y="0">マーケティングビジネス実務検定対策講座</tspan></text><text transform="translate(23 11146)" font-size="8" font-family="HiraginoSans-W3, Hiragino Sans"><tspan x="0" y="0">宣伝会議</tspan><tspan y="0" font-family="Helvetica">web</tspan><tspan y="0">デジタル講座</tspan></text><text transform="translate(23 11164)" font-size="8" font-family="HiraginoSans-W3, Hiragino Sans"><tspan x="0" y="0">宣伝会議マーケティング講座</tspan></text><text transform="translate(22 11251)" font-size="8" font-family="Helvetica"><tspan x="0" y="0">Schoo</tspan></text><text transform="translate(22 11266)" font-size="8" font-family="HiraginoSans-W3, Hiragino Sans"><tspan x="0" y="0">ジッセン！</tspan><tspan y="0" font-family="Helvetica">Web</tspan><tspan y="0">マーケティング基礎</tspan></text><line x2="333.069" transform="translate(20.217 11187.817)" fill="none" stroke="#707070" stroke-width="1" stroke-dasharray="5" opacity="0.39"/><path d="M40.156,7.136H4.41L0,41.245H52.96L59.472,7.136H48.253V0Z" transform="translate(354.087 11099.74) rotate(180)" fill="#e66969"/><rect width="36" height="16" transform="translate(319 11178)" fill="#e66969"/><text transform="translate(322 11190)" fill="#fff" font-size="10" font-family="HiraginoSans-W6, Hiragino Sans"><tspan x="0" y="0">実践型</tspan></text><text transform="translate(199 11215)" font-size="8" font-family="Helvetica"><tspan x="0" y="0">Google AdWords</tspan><tspan y="0" font-family="HiraginoSans-W3, Hiragino Sans">認定資格プログラム</tspan></text><text transform="translate(199 11232)" font-size="8" font-family="Helvetica"><tspan x="0" y="0">Yahoo!JAPAN </tspan><tspan y="0" font-family="HiraginoSans-W3, Hiragino Sans">プロモーション広告</tspan><tspan y="0"></tspan><tspan font-family="HiraginoSans-W3, Hiragino Sans"><tspan x="0" y="14">公式ラーニングポータル</tspan></tspan></text><text transform="translate(199 11260)" font-size="8" font-family="Helvetica"><tspan x="0" y="0">Facebook Blueprint</tspan></text><g transform="translate(349.75 11104.378) rotate(180)" fill="#fff" stroke-linecap="round"><path d="M 51.7197151184082 39.74492263793945 L 1.706416249275208 39.74492263793945 L 5.728354454040527 8.635601043701172 L 40.15580368041992 8.635601043701172 L 40.72243499755859 8.635601043701172 L 41.14755630493164 8.260961532592773 L 46.75275421142578 3.321266174316406 L 46.75275421142578 7.13560152053833 L 46.75275421142578 8.635601043701172 L 48.25275421142578 8.635601043701172 L 57.65891265869141 8.635601043701172 L 51.7197151184082 39.74492263793945 Z" stroke="none"/><path d="M 45.25275039672852 6.642513275146484 L 41.2890625 10.13559532165527 L 7.046905517578125 10.13559532165527 L 3.412811279296875 38.24491882324219 L 50.47900009155273 38.24491882324219 L 55.84545135498047 10.13559532165527 L 45.25275039672852 10.13559532165527 L 45.25275039672852 6.642513275146484 M 48.25275039672852 -3.814697265625e-06 L 48.25275039672852 7.135593414306641 L 59.47237396240234 7.135593414306641 L 52.96044158935547 41.24491500854492 L -3.814697265625e-06 41.24491500854492 L 4.409797668457031 7.135593414306641 L 40.15579605102539 7.135593414306641 L 48.25275039672852 -3.814697265625e-06 Z" stroke="none" fill="#020202"/></g><text transform="translate(320 11085)" fill="#2c2c2c" font-size="13" font-family="HiraginoSans-W6, Hiragino Sans"><tspan x="-13" y="0">特化</tspan></text><line y2="190.821" transform="translate(185.884 11091.539)" fill="none" stroke="#707070" stroke-width="1" stroke-dasharray="5" opacity="0.416"/><text transform="translate(22 11190)" font-size="10" font-family="HiraginoSans-W6, Hiragino Sans"><tspan x="0" y="0">座学型</tspan></text><path d="M2.4-22.24V0H13.568V-2.944H6.048v-19.3ZM39.712-11.168a11.087,11.087,0,0,0-11.36-11.36,11.124,11.124,0,0,0-11.36,11.36A11.132,11.132,0,0,0,28.352.224,11.094,11.094,0,0,0,39.712-11.168Zm-18.976,0c0-5.024,3.2-8.16,7.616-8.16s7.616,3.136,7.616,8.16-3.2,8.224-7.616,8.224S20.736-6.144,20.736-11.168Zm34.3-11.36a11.124,11.124,0,0,0-11.36,11.36A11.105,11.105,0,0,0,55.04.192,10.965,10.965,0,0,0,66.048-9.344v-2.848H53.792V-9.28h8.352A6.734,6.734,0,0,1,55.04-3.1c-4.416,0-7.616-3.168-7.616-8.064s3.2-8.032,7.616-8.032a6.322,6.322,0,0,1,5.952,3.36h4.384C63.68-20.192,59.68-22.528,55.04-22.528Zm37.7,11.36a11.087,11.087,0,0,0-11.36-11.36,11.124,11.124,0,0,0-11.36,11.36A11.132,11.132,0,0,0,81.376.224,11.094,11.094,0,0,0,92.736-11.168Zm-18.976,0c0-5.024,3.2-8.16,7.616-8.16s7.616,3.136,7.616,8.16-3.2,8.224-7.616,8.224S73.76-6.144,73.76-11.168Z" transform="translate(223 11146)" fill="#2852ab"/></g></svg>