<svg xmlns="http://www.w3.org/2000/svg" width="957" height="574" viewBox="0 0 957 574"><g transform="translate(-164 -10513)"><path d="M92.592,16.453H10.168L0,95.1H122.118l15.015-78.65h-25.87V0Z" transform="translate(1100.133 10608.104) rotate(180)" fill="#e66969"/><rect width="187" height="45" transform="translate(539 10529)" fill="#e66969" opacity="0.573"/><rect width="81" height="36" transform="translate(1040 10791)" fill="#e66969" opacity="0.573"/><rect width="768" height="444" rx="32" transform="translate(256 10587)" fill="#efefef"/><text transform="translate(547 10561)" font-size="24" font-family="HiraginoSans-W6, Hiragino Sans"><tspan x="0" y="0">オフライン学習</tspan></text><text transform="translate(556 11084)" font-size="24" font-family="HiraginoSans-W6, Hiragino Sans"><tspan x="0" y="0">オンライン学習</tspan></text><text transform="translate(164 10819)" font-size="24" font-family="HiraginoSans-W6, Hiragino Sans"><tspan x="0" y="0">座学型</tspan></text><text transform="translate(1044 10818)" font-size="24" font-family="HiraginoSans-W6, Hiragino Sans"><tspan x="0" y="0">実践型</tspan></text><text transform="translate(317 10652)" font-size="16" font-family="HiraginoSans-W3, Hiragino Sans"><tspan x="0" y="0">マーケティングビジネス実務検定対策講座</tspan></text><text transform="translate(317 10695)" font-size="16" font-family="HiraginoSans-W3, Hiragino Sans"><tspan x="0" y="0">宣伝会議</tspan><tspan y="0" font-family="Helvetica">web</tspan><tspan y="0">デジタル講座</tspan></text><text transform="translate(317 10738)" font-size="16" font-family="HiraginoSans-W3, Hiragino Sans"><tspan x="0" y="0">宣伝会議マーケティング講座</tspan></text><text transform="translate(317 10960)" font-size="16" font-family="Helvetica"><tspan x="0" y="0">Schoo</tspan></text><text transform="translate(317 10996)" font-size="16" font-family="HiraginoSans-W3, Hiragino Sans"><tspan x="0" y="0">ジッセン！</tspan><tspan y="0" font-family="Helvetica">Web</tspan><tspan y="0">マーケティング基礎</tspan></text><text transform="translate(704 10882)" font-size="16" font-family="Helvetica"><tspan x="0" y="0">Google AdWords</tspan><tspan y="0" font-family="HiraginoSans-W3, Hiragino Sans">認定資格プログラム</tspan></text><text transform="translate(704 10918)" font-size="16" font-family="Helvetica"><tspan x="0" y="0">Yahoo!JAPAN </tspan><tspan y="0" font-family="HiraginoSans-W3, Hiragino Sans">プロモーション広告</tspan><tspan y="0"></tspan><tspan font-family="HiraginoSans-W3, Hiragino Sans"><tspan x="0" y="27">公式ラーニングポータル</tspan></tspan></text><text transform="translate(704 10984)" font-size="16" font-family="Helvetica"><tspan x="0" y="0">Facebook Blueprint</tspan></text><line x2="768" transform="translate(256.5 10813.5)" fill="none" stroke="#707070" stroke-width="1" stroke-dasharray="5" opacity="0.39"/><line y2="440" transform="translate(638.5 10591.5)" fill="none" stroke="#707070" stroke-width="1" stroke-dasharray="5" opacity="0.416"/><g transform="translate(1090.133 10621.104) rotate(180)" fill="#fff" stroke-linecap="round"><path d="M 120.049690246582 92.603515625 L 2.84401798248291 92.603515625 L 12.365797996521 18.95343780517578 L 92.59228515625 18.95343780517578 L 93.53668975830078 18.95343780517578 L 94.24520874023438 18.32903861999512 L 108.7624435424805 5.535439014434814 L 108.7624435424805 16.45343780517578 L 108.7624435424805 18.95343780517578 L 111.2624435424805 18.95343780517578 L 134.1105041503906 18.95343780517578 L 120.049690246582 92.603515625 Z" stroke="none"/><path d="M 106.2624435424805 11.07086181640625 L 94.4810791015625 21.45343017578125 L 14.56340789794922 21.45343017578125 L 5.688034057617188 90.103515625 L 117.9818115234375 90.103515625 L 131.0880432128906 21.45343017578125 L 106.2624435424805 21.45343017578125 L 106.2624435424805 11.07086181640625 M 111.2624435424805 0 L 111.2624435424805 16.45343017578125 L 137.1329193115234 16.45343017578125 L 122.1175537109375 95.103515625 L -1.52587890625e-05 95.103515625 L 10.16820526123047 16.45343017578125 L 92.59229278564453 16.45343017578125 L 111.2624435424805 0 Z" stroke="none" fill="#020202"/></g><text transform="translate(1023 10578)" fill="#2c2c2c" font-size="32" font-family="HiraginoSans-W6, Hiragino Sans"><tspan x="-32" y="0">特化</tspan></text><path d="M6-55.6V0H33.92V-7.36H15.12V-55.6ZM99.28-27.92c0-16.64-12.56-28.4-28.4-28.4-15.68,0-28.4,11.76-28.4,28.4C42.48-11.2,55.2.56,70.88.56,86.72.56,99.28-11.2,99.28-27.92Zm-47.44,0c0-12.56,8-20.4,19.04-20.4s19.04,7.84,19.04,20.4-8,20.56-19.04,20.56S51.84-15.36,51.84-27.92Zm85.76-28.4c-15.68,0-28.4,11.76-28.4,28.4,0,16.72,12.72,28.4,28.4,28.4a27.413,27.413,0,0,0,27.52-23.84v-7.12H134.48v7.28h20.88C154-13.84,147.68-7.76,137.6-7.76c-11.04,0-19.04-7.92-19.04-20.16S126.56-48,137.6-48c6.64,0,11.92,2.8,14.88,8.4h10.96C159.2-50.48,149.2-56.32,137.6-56.32Zm94.24,28.4c0-16.64-12.56-28.4-28.4-28.4-15.68,0-28.4,11.76-28.4,28.4,0,16.72,12.72,28.48,28.4,28.48C219.28.56,231.84-11.2,231.84-27.92Zm-47.44,0c0-12.56,8-20.4,19.04-20.4s19.04,7.84,19.04,20.4-8,20.56-19.04,20.56S184.4-15.36,184.4-27.92Z" transform="translate(728 10691)" fill="#2852ab"/></g></svg>