<svg xmlns="http://www.w3.org/2000/svg" xmlns:xlink="http://www.w3.org/1999/xlink" width="59" height="56" viewBox="0 0 59 56">
  <defs>
    <filter id="特徴4" x="9" y="20" width="42" height="19" filterUnits="userSpaceOnUse">
      <feOffset dx="1" dy="1" input="SourceAlpha"/>
      <feGaussianBlur result="blur"/>
      <feFlood/>
      <feComposite operator="in" in2="blur"/>
      <feComposite in="SourceGraphic"/>
    </filter>
  </defs>
  <g id="グループ_56" data-name="グループ 56" transform="translate(-156 -8254)">
    <g id="合体_1" data-name="合体 1" transform="translate(1837 8162)" fill="#e66969">
      <path d="M -1651.5 147.4996032714844 C -1655.41845703125 147.4996032714844 -1659.21923828125 146.7714385986328 -1662.796630859375 145.3353271484375 C -1666.250732421875 143.9487457275391 -1669.352416992188 141.9640197753906 -1672.015625 139.4362487792969 C -1674.677124023438 136.9102172851562 -1676.766357421875 133.9693450927734 -1678.225219726562 130.6953430175781 C -1679.73486328125 127.3078002929688 -1680.500244140625 123.7092742919922 -1680.500244140625 119.9997024536133 C -1680.500244140625 116.2903442382812 -1679.73486328125 112.6919326782227 -1678.225341796875 109.304443359375 C -1676.766357421875 106.0304489135742 -1674.677124023438 103.0895614624023 -1672.015625 100.5634841918945 C -1669.352416992188 98.03564453125 -1666.250610351562 96.05084228515625 -1662.796630859375 94.66419219970703 C -1659.219116210938 93.22801208496094 -1655.41845703125 92.49980163574219 -1651.5 92.49980163574219 C -1647.58154296875 92.49980163574219 -1643.780883789062 93.22801208496094 -1640.203491210938 94.66419219970703 C -1636.749389648438 96.05084228515625 -1633.647705078125 98.03564453125 -1630.984375 100.5634841918945 C -1628.322998046875 103.0895614624023 -1626.233764648438 106.0304489135742 -1624.774780273438 109.304443359375 C -1623.265258789062 112.6919403076172 -1622.499877929688 116.2903442382812 -1622.499877929688 119.9997024536133 C -1622.499877929688 123.0279159545898 -1623.015380859375 126.0035095214844 -1624.032104492188 128.8438262939453 C -1625.015502929688 131.5911254882812 -1626.449584960938 134.1654815673828 -1628.294311523438 136.4954071044922 L -1628.501342773438 136.7568664550781 L -1628.339477539062 137.0484619140625 L -1624.989624023438 143.0829162597656 L -1632.697998046875 141.1848297119141 L -1632.93310546875 141.1269073486328 L -1633.124389648438 141.2755889892578 C -1635.6611328125 143.2478790283203 -1638.503051757812 144.7854461669922 -1641.5712890625 145.8455963134766 C -1644.747680664062 146.943115234375 -1648.088134765625 147.4996032714844 -1651.5 147.4996032714844 Z" stroke="none"/>
      <path d="M -1651.5 92.99980163574219 C -1655.354370117188 92.99980163574219 -1659.092407226562 93.71589660644531 -1662.6103515625 95.12820434570312 C -1666.005615234375 96.49122619628906 -1669.05419921875 98.44192504882812 -1671.671508789062 100.9261322021484 C -1674.285034179688 103.4068298339844 -1676.33642578125 106.294189453125 -1677.7685546875 109.5079650878906 C -1679.249389648438 112.8309936523438 -1680.000244140625 116.3609237670898 -1680.000244140625 119.9997024536133 C -1680.000244140625 123.6386947631836 -1679.249389648438 127.1687545776367 -1677.7685546875 130.4918212890625 C -1676.33642578125 133.7056274414062 -1674.285034179688 136.5929565429688 -1671.671508789062 139.0736083984375 C -1669.05419921875 141.5577239990234 -1666.005615234375 143.5083618164062 -1662.6103515625 144.8713226318359 C -1659.092407226562 146.2835388183594 -1655.354370117188 146.9996032714844 -1651.5 146.9996032714844 C -1648.143798828125 146.9996032714844 -1644.858276367188 146.4523315429688 -1641.734619140625 145.3730010986328 C -1638.71826171875 144.3307952880859 -1635.924682617188 142.8194122314453 -1633.431274414062 140.880859375 L -1633.048828125 140.5834808349609 L -1625.983154296875 142.3233337402344 L -1629.100463867188 136.7079467773438 L -1628.686401367188 136.1850128173828 C -1626.875366210938 133.8978881835938 -1625.467895507812 131.3712463378906 -1624.502807617188 128.6753234863281 C -1623.505493164062 125.8892211914062 -1622.999877929688 122.9703216552734 -1622.999877929688 119.9997024536133 C -1622.999877929688 116.3609237670898 -1623.750732421875 112.8309936523438 -1625.231567382812 109.5079650878906 C -1626.663696289062 106.294189453125 -1628.715087890625 103.4068298339844 -1631.32861328125 100.9261322021484 C -1633.945922851562 98.44192504882812 -1636.994506835938 96.49122619628906 -1640.389770507812 95.12820434570312 C -1643.90771484375 93.71589660644531 -1647.645751953125 92.99980163574219 -1651.5 92.99980163574219 M -1651.5 91.99980163574219 C -1635.207397460938 91.99980163574219 -1621.999877929688 104.5359039306641 -1621.999877929688 119.9997024536133 C -1621.999877929688 126.3058319091797 -1624.1962890625 132.1252136230469 -1627.90234375 136.8057861328125 L -1623.99609375 143.8424987792969 L -1632.817504882812 141.6703186035156 C -1637.904663085938 145.6255493164062 -1644.410766601562 147.9996032714844 -1651.5 147.9996032714844 C -1667.792724609375 147.9996032714844 -1681.000244140625 135.4644012451172 -1681.000244140625 119.9997024536133 C -1681.000244140625 104.5359039306641 -1667.792724609375 91.99980163574219 -1651.5 91.99980163574219 Z" stroke="none" fill="#272727"/>
    </g>
    <g transform="matrix(1, 0, 0, 1, 156, 8254)" filter="url(#特徴4)">
      <text id="特徴4-2" data-name="特徴4" transform="translate(9 34)" fill="#fff" font-size="16" font-family="HiraginoSans-W6, Hiragino Sans"><tspan x="0" y="0">特徴</tspan><tspan y="0" font-family="Helvetica-Bold, Helvetica" font-weight="700">4</tspan></text>
    </g>
  </g>
</svg>
