<svg xmlns="http://www.w3.org/2000/svg" width="67.752" height="17.064" viewBox="0 0 67.752 17.064">
  <path id="パス_131" data-name="パス 131" d="M1.8-16.68V0h8.376V-2.208H4.536V-16.68Zm27.984,8.3a8.315,8.315,0,0,0-8.52-8.52,8.343,8.343,0,0,0-8.52,8.52A8.349,8.349,0,0,0,21.264.168,8.321,8.321,0,0,0,29.784-8.376Zm-14.232,0c0-3.768,2.4-6.12,5.712-6.12s5.712,2.352,5.712,6.12-2.4,6.168-5.712,6.168S15.552-4.608,15.552-8.376ZM41.28-16.9a8.343,8.343,0,0,0-8.52,8.52A8.329,8.329,0,0,0,41.28.144a8.224,8.224,0,0,0,8.256-7.152V-9.144H40.344V-6.96h6.264A5.05,5.05,0,0,1,41.28-2.328c-3.312,0-5.712-2.376-5.712-6.048s2.4-6.024,5.712-6.024a4.742,4.742,0,0,1,4.464,2.52h3.288A7.951,7.951,0,0,0,41.28-16.9Zm28.272,8.52a8.315,8.315,0,0,0-8.52-8.52,8.343,8.343,0,0,0-8.52,8.52A8.349,8.349,0,0,0,61.032.168,8.321,8.321,0,0,0,69.552-8.376Zm-14.232,0c0-3.768,2.4-6.12,5.712-6.12s5.712,2.352,5.712,6.12-2.4,6.168-5.712,6.168S55.32-4.608,55.32-8.376Z" transform="translate(-1.8 16.896)" fill="#2852ab"/>
</svg>
