<svg xmlns="http://www.w3.org/2000/svg" width="23" height="17" viewBox="0 0 23 17">
  <g id="グループ_133" data-name="グループ 133" transform="translate(-1185 -58)">
    <g id="長方形_240" data-name="長方形 240" transform="translate(1208 75) rotate(180)" fill="#fff" stroke="#292929" stroke-linejoin="round" stroke-width="1">
      <rect width="23" height="17" stroke="none"/>
      <rect x="0.5" y="0.5" width="22" height="16" fill="none"/>
    </g>
    <g id="多角形_20" data-name="多角形 20" transform="translate(1207 69.043) rotate(180)" fill="#fff" stroke-linecap="round" stroke-linejoin="round">
      <path d="M 22.24608039855957 10.54347896575928 L 21 10.54347896575928 L 0 10.54347896575928 L -1.246080040931702 10.54347896575928 L -0.3456099927425385 9.682159423828125 L 10.15439033508301 -0.3613210022449493 L 10.5 -0.691910982131958 L 10.84560966491699 -0.3613210022449493 L 21.34560966491699 9.682159423828125 L 22.24608039855957 10.54347896575928 Z" stroke="none"/>
      <path d="M 10.5 -9.5367431640625e-07 L 0 10.04347896575928 L 21 10.04347896575928 L 10.5 -9.5367431640625e-07 M 10.5 -0.9999980926513672 C 10.74895477294922 -0.9999980926513672 10.99790954589844 -0.9075460433959961 11.1912202835083 -0.7226409912109375 L 21.69121932983398 9.320838928222656 C 21.98642921447754 9.603208541870117 22.0802001953125 10.0367488861084 21.92807006835938 10.41587924957275 C 21.77594947814941 10.79499912261963 21.40851020812988 11.04347896575928 21 11.04347896575928 L 0 11.04347896575928 C -0.4085102081298828 11.04347896575928 -0.7759494781494141 10.79499912261963 -0.928070068359375 10.41587924957275 C -1.0802001953125 10.0367488861084 -0.9864292144775391 9.603208541870117 -0.6912193298339844 9.320838928222656 L 9.808779716491699 -0.7226409912109375 C 10.00209045410156 -0.9075460433959961 10.25104522705078 -0.9999980926513672 10.5 -0.9999980926513672 Z" stroke="none" fill="#292929"/>
    </g>
  </g>
</svg>
