<svg xmlns="http://www.w3.org/2000/svg" width="60" height="60" viewBox="0 0 60 60"><g transform="translate(-74 -10054)"><g transform="translate(74 10054)" fill="#2852ab" stroke="#2c2c2c" stroke-width="3"><circle cx="30" cy="30" r="30" stroke="none"/><circle cx="30" cy="30" r="28.5" fill="none"/></g><path d="M7.055-4.781,8.59-6.551l1.992,1.582a16.2,16.2,0,0,0,.246-3.574,21.743,21.743,0,0,0-.176-3.434,2.988,2.988,0,0,0-.691-1.418,3.084,3.084,0,0,0-1.031-.879,3.769,3.769,0,0,0-1.605-.363,3.58,3.58,0,0,0-1.57.363,3.268,3.268,0,0,0-1.078.879,2.827,2.827,0,0,0-.668,1.418A20.4,20.4,0,0,0,3.82-8.543a19.94,19.94,0,0,0,.188,3.41,2.846,2.846,0,0,0,.668,1.441,3.031,3.031,0,0,0,1.078.855,3.039,3.039,0,0,0,1.57.387,2.882,2.882,0,0,0,1.91-.6Zm4.3,3.434A5.763,5.763,0,0,1,7.324.141,6,6,0,0,1,3.961-.844,5.723,5.723,0,0,1,1.969-2.93q-.187-.387-.34-.738a4.813,4.813,0,0,1-.234-.914,28.576,28.576,0,0,1-.176-3.961,28.52,28.52,0,0,1,.176-3.984,4.718,4.718,0,0,1,.574-1.629,5.9,5.9,0,0,1,1.992-2.109,5.874,5.874,0,0,1,3.363-.961,5.973,5.973,0,0,1,3.4.961,5.743,5.743,0,0,1,1.945,2.109,3.922,3.922,0,0,1,.6,1.629,32.867,32.867,0,0,1,.152,3.984q0,2.66-.117,3.715a4.474,4.474,0,0,1-.5,1.641l2.25,1.793L13.512.387Z" transform="translate(97 10093)" fill="#fff"/></g></svg>