<svg id="グループ_31" data-name="グループ 31" xmlns="http://www.w3.org/2000/svg" xmlns:xlink="http://www.w3.org/1999/xlink" width="291.823" height="252.54" viewBox="0 0 291.823 252.54">
  <defs>
    <linearGradient id="linear-gradient" x1="0.5" y1="1" x2="0.5" gradientUnits="objectBoundingBox">
      <stop offset="0" stop-color="gray" stop-opacity="0.251"/>
      <stop offset="0.54" stop-color="gray" stop-opacity="0.122"/>
      <stop offset="1" stop-color="gray" stop-opacity="0.102"/>
    </linearGradient>
  </defs>
  <rect id="長方形_174" data-name="長方形 174" width="138.302" height="139.714" transform="translate(153.521 112.825)" fill="url(#linear-gradient)"/>
  <rect id="長方形_175" data-name="長方形 175" width="134.54" height="113.841" transform="translate(155.404 134.933)" fill="#fff"/>
  <rect id="長方形_176" data-name="長方形 176" width="134.54" height="20.699" transform="translate(155.404 114.238)" fill="#bdbdbd"/>
  <circle id="楕円形_16" data-name="楕円形 16" cx="5.175" cy="5.175" r="5.175" transform="translate(160.579 119.409)" fill="#ff5252"/>
  <circle id="楕円形_17" data-name="楕円形 17" cx="5.175" cy="5.175" r="5.175" transform="translate(173.751 119.409)" fill="#ff0"/>
  <circle id="楕円形_18" data-name="楕円形 18" cx="5.175" cy="5.175" r="5.175" transform="translate(186.922 119.409)" fill="#69f0ae"/>
  <rect id="長方形_177" data-name="長方形 177" width="110.84" height="6.948" transform="translate(167.252 161.581)" fill="#e0e0e0"/>
  <rect id="長方形_178" data-name="長方形 178" width="110.84" height="6.948" transform="translate(167.252 179.448)" fill="#e0e0e0"/>
  <rect id="長方形_179" data-name="長方形 179" width="110.84" height="6.948" transform="translate(167.252 197.315)" fill="#e0e0e0"/>
  <rect id="長方形_180" data-name="長方形 180" width="110.84" height="6.948" transform="translate(167.252 215.181)" fill="#e0e0e0"/>
  <circle id="楕円形_19" data-name="楕円形 19" cx="12.904" cy="12.904" r="12.904" transform="translate(198.85 152.059)" fill="url(#linear-gradient)"/>
  <circle id="楕円形_20" data-name="楕円形 20" cx="12.904" cy="12.904" r="12.904" transform="translate(230.613 169.926)" fill="url(#linear-gradient)"/>
  <circle id="楕円形_21" data-name="楕円形 21" cx="12.904" cy="12.904" r="12.904" transform="translate(214.731 187.792)" fill="url(#linear-gradient)"/>
  <circle id="楕円形_22" data-name="楕円形 22" cx="12.904" cy="12.904" r="12.904" transform="translate(259.067 205.659)" fill="url(#linear-gradient)"/>
  <circle id="楕円形_23" data-name="楕円形 23" cx="10.919" cy="10.919" r="10.919" transform="translate(200.835 154.044)" fill="#e66969"/>
  <circle id="楕円形_24" data-name="楕円形 24" cx="10.919" cy="10.919" r="10.919" transform="translate(232.598 171.911)" fill="#e66969"/>
  <circle id="楕円形_25" data-name="楕円形 25" cx="10.919" cy="10.919" r="10.919" transform="translate(216.717 189.778)" fill="#e66969"/>
  <circle id="楕円形_26" data-name="楕円形 26" cx="10.919" cy="10.919" r="10.919" transform="translate(261.053 207.644)" fill="#2852ab"/>
  <rect id="長方形_181" data-name="長方形 181" width="138.302" height="139.714" fill="url(#linear-gradient)"/>
  <rect id="長方形_182" data-name="長方形 182" width="134.54" height="113.841" transform="translate(1.883 22.108)" fill="#fff"/>
  <rect id="長方形_183" data-name="長方形 183" width="134.54" height="20.699" transform="translate(1.883 1.413)" fill="#bdbdbd"/>
  <circle id="楕円形_27" data-name="楕円形 27" cx="5.175" cy="5.175" r="5.175" transform="translate(7.057 6.584)" fill="#ff5252"/>
  <circle id="楕円形_28" data-name="楕円形 28" cx="5.175" cy="5.175" r="5.175" transform="translate(20.229 6.584)" fill="#ff0"/>
  <circle id="楕円形_29" data-name="楕円形 29" cx="5.175" cy="5.175" r="5.175" transform="translate(33.401 6.584)" fill="#69f0ae"/>
  <rect id="長方形_184" data-name="長方形 184" width="12.659" height="59.271" transform="translate(31.31 49.395)" fill="#e0e0e0"/>
  <rect id="長方形_185" data-name="長方形 185" width="12.659" height="59.271" transform="translate(52.316 49.395)" fill="#e0e0e0"/>
  <rect id="長方形_186" data-name="長方形 186" width="12.659" height="59.271" transform="translate(73.32 49.395)" fill="#e0e0e0"/>
  <rect id="長方形_187" data-name="長方形 187" width="12.659" height="59.271" transform="translate(94.323 49.395)" fill="#e0e0e0"/>
  <rect id="長方形_188" data-name="長方形 188" width="12.659" height="29.636" transform="translate(31.31 79.03)" fill="#2852ab"/>
  <g id="グループ_30" data-name="グループ 30" transform="translate(31.31 66.656)" opacity="0.4">
    <rect id="長方形_189" data-name="長方形 189" width="12.659" height="12.947" fill="#e8edfc"/>
  </g>
  <rect id="長方形_190" data-name="長方形 190" width="12.659" height="12.947" transform="translate(52.432 72.79)" fill="#e8edfc" opacity="0.4"/>
  <rect id="長方形_191" data-name="長方形 191" width="12.659" height="12.947" transform="translate(94.33 73.469)" fill="#ff0" opacity="0.4"/>
  <rect id="長方形_192" data-name="長方形 192" width="12.659" height="23.2" transform="translate(52.316 85.462)" fill="#2852ab"/>
  <rect id="長方形_193" data-name="長方形 193" width="12.659" height="33.953" transform="translate(73.32 74.713)" fill="#2852ab"/>
  <rect id="長方形_194" data-name="長方形 194" width="12.659" height="11.795" transform="translate(73.32 62.917)" fill="#2852ab" opacity="0.4"/>
  <rect id="長方形_195" data-name="長方形 195" width="12.659" height="22.155" transform="translate(94.323 86.511)" fill="#ff0"/>
  <rect id="長方形_196" data-name="長方形 196" width="138.302" height="139.714" transform="translate(64.85 53.087)" fill="url(#linear-gradient)"/>
  <rect id="長方形_197" data-name="長方形 197" width="134.54" height="113.841" transform="translate(66.732 75.196)" fill="#fff"/>
  <rect id="長方形_198" data-name="長方形 198" width="134.54" height="20.699" transform="translate(66.732 54.497)" fill="#bdbdbd"/>
  <circle id="楕円形_30" data-name="楕円形 30" cx="5.175" cy="5.175" r="5.175" transform="translate(71.907 59.672)" fill="#ff5252"/>
  <circle id="楕円形_31" data-name="楕円形 31" cx="5.175" cy="5.175" r="5.175" transform="translate(85.079 59.672)" fill="#ff0"/>
  <circle id="楕円形_32" data-name="楕円形 32" cx="5.175" cy="5.175" r="5.175" transform="translate(98.25 59.672)" fill="#69f0ae"/>
  <path id="パス_47" data-name="パス 47" d="M563.525,349.66h-.235v78.084h.235a39.042,39.042,0,1,0,0-78.084Z" transform="translate(-429.525 -256.591)" fill="#2852ab"/>
  <path id="パス_48" data-name="パス 48" d="M484.807,349.68A39.042,39.042,0,0,0,446,388.5h38.807Z" transform="translate(-351.042 -256.604)" fill="#e8edfc"/>
  <path id="パス_49" data-name="パス 49" d="M439.61,468.22v.245A40.742,40.742,0,0,0,480.1,509.2l0-40.984Z" transform="translate(-346.766 -335.923)" fill="url(#linear-gradient)"/>
  <path id="パス_50" data-name="パス 50" d="M443.17,469.8v.235a39.042,39.042,0,0,0,38.811,39.042V469.8Z" transform="translate(-349.148 -336.981)" fill="#e66969"/>
</svg>
