<svg xmlns="http://www.w3.org/2000/svg" width="792.133" height="294.924" viewBox="0 0 792.133 294.924">
  <g id="グループ_132" data-name="グループ 132" transform="translate(134.977 -7049.639)">
    <g id="グループ_102" data-name="グループ 102" transform="translate(-167.887 -17)">
      <path id="パス_15" data-name="パス 15" d="M488.853,395.789c-75.737,0-137.353-61.616-137.353-137.353s61.616-137.353,137.353-137.353S626.206,182.7,626.206,258.436,564.59,395.789,488.853,395.789Zm0-270.76c-73.561,0-133.406,59.846-133.406,133.406s59.846,133.406,133.406,133.406S622.259,332,622.259,258.436,562.413,125.029,488.853,125.029Z" transform="translate(-133.466 6952.711)" fill="#3f3d56"/>
      <path id="パス_16" data-name="パス 16" d="M497.7,371.48a104.2,104.2,0,1,1,104.2-104.2A104.317,104.317,0,0,1,497.7,371.48Zm0-206.03A101.831,101.831,0,1,0,599.53,267.281,101.831,101.831,0,0,0,497.7,165.45Z" transform="translate(-142.312 6943.866)" fill="#3f3d56"/>
      <path id="パス_19" data-name="パス 19" d="M474.5,304.082a48.171,48.171,0,0,0,48.17,48.171V304.082Z" transform="translate(-178.454 6917.639)" fill="#2852ab" opacity="0.487"/>
      <path id="パス_17" data-name="パス 17" d="M532.846,351.773a49.346,49.346,0,1,1,49.345-49.346,49.345,49.345,0,0,1-49.345,49.346Zm0-96.341a47,47,0,1,0,47,47A47,47,0,0,0,532.846,255.432Z" transform="translate(-176.88 6908.719)" fill="#3f3d56"/>
      <g id="グループ_37" data-name="グループ 37" transform="translate(296.046 7152.403)">
        <path id="パス_18" data-name="パス 18" d="M522.671,245.082a48.171,48.171,0,0,0-48.17,48.171h48.17Z" transform="translate(-474.5 -245.082)" fill="#e66969"/>
        <path id="パス_21" data-name="パス 21" d="M532.5,348.253a48.171,48.171,0,0,0,48.17-48.171H532.5Z" transform="translate(-464.356 -235.464)" fill="#e66969"/>
      </g>
      <path id="パス_20" data-name="パス 20" d="M532.5,245.082v48.171h48.17A48.171,48.171,0,0,0,532.5,245.082Z" transform="translate(-168.311 6907.321)" fill="#2852ab" opacity="0.487"/>
    </g>
    <path id="パス_121" data-name="パス 121" d="M2374.844,6793.5H2787" transform="translate(-2129.844 366)" fill="none" stroke="#707070" stroke-width="1" opacity="0.596"/>
    <path id="パス_122" data-name="パス 122" d="M1859,6651h166.076l98.9,94.361" transform="translate(-1993.977 399.139)" fill="none" stroke="#707070" stroke-width="1" opacity="0.596"/>
    <path id="パス_123" data-name="パス 123" d="M2113.172,6924.825l-71.361,80.075H1916" transform="translate(-1979.057 319)" fill="none" stroke="#707070" stroke-width="1" opacity="0.596"/>
    <path id="パス_124" data-name="パス 124" d="M2372.068,6916.8,2455,7017.063h198.068" transform="translate(-2138 327)" fill="none" stroke="#707070" stroke-width="1" opacity="0.596"/>
  </g>
</svg>
