<svg xmlns="http://www.w3.org/2000/svg" width="991" height="697" viewBox="0 0 991 697">
  <g id="グループ_135" data-name="グループ 135" transform="translate(-125 -7379)">
    <g id="グループ_103" data-name="グループ 103" transform="translate(0 321)">
      <path id="パス_15" data-name="パス 15" d="M539.881,497.844c-103.874,0-188.381-84.507-188.381-188.381s84.507-188.381,188.381-188.381S728.262,205.59,728.262,309.463,643.755,497.844,539.881,497.844Zm0-371.349c-100.889,0-182.968,82.079-182.968,182.968s82.079,182.968,182.968,182.968,182.968-82.079,182.968-182.968S640.769,126.5,539.881,126.5Z" transform="translate(90.506 7036.684)" fill="#3f3d56"/>
      <path id="パス_20" data-name="パス 20" d="M532.5,245.082v66.066h66.066A66.066,66.066,0,0,0,532.5,245.082Z" transform="translate(109.96 7020.497)" fill="#2852ab" opacity="0.487"/>
      <path id="パス_16" data-name="パス 16" d="M536.41,448.9c-78.8,0-142.91-64.109-142.91-142.91s64.109-142.91,142.91-142.91,142.91,64.109,142.91,142.91S615.21,448.9,536.41,448.9Zm0-282.572A139.662,139.662,0,1,0,676.071,305.992,139.662,139.662,0,0,0,536.41,166.33Z" transform="translate(93.977 7040.155)" fill="#3f3d56"/>
      <path id="パス_19" data-name="パス 19" d="M474.5,304.082a66.066,66.066,0,0,0,66.066,66.066V304.082Z" transform="translate(74.5 7056.567)" fill="#2852ab" opacity="0.487"/>
      <path id="パス_17" data-name="パス 17" d="M551.178,388.438a67.678,67.678,0,1,1,67.678-67.678,67.678,67.678,0,0,1-67.678,67.678Zm0-132.133a64.455,64.455,0,1,0,64.455,64.455A64.455,64.455,0,0,0,551.178,256.305Z" transform="translate(80.002 7025.387)" fill="#3f3d56"/>
      <g id="グループ_37" data-name="グループ 37" transform="translate(2 390)">
        <path id="パス_18" data-name="パス 18" d="M540.566,245.082A66.066,66.066,0,0,0,474.5,311.149h66.066Z" transform="translate(72.5 6630.497)" fill="#e66969"/>
        <path id="パス_21" data-name="パス 21" d="M532.5,366.149a66.066,66.066,0,0,0,66.066-66.066H532.5Z" transform="translate(107.96 6664.121)" fill="#e66969"/>
      </g>
    </g>
    <text id="調査_分析" data-name="調査・分析" transform="translate(196 7433)" fill="#2c2c2c" font-size="48" font-family="HiraginoSans-W3, Hiragino Sans"><tspan x="0" y="0">調査・分析</tspan></text>
    <text id="戦略設計" transform="translate(924 7576)" fill="#2c2c2c" font-size="48" font-family="HiraginoSans-W3, Hiragino Sans"><tspan x="0" y="0">戦略設計</tspan></text>
    <text id="入稿" transform="translate(871 7935)" fill="#2c2c2c" font-size="48" font-family="HiraginoSans-W3, Hiragino Sans"><tspan x="0" y="0">入稿</tspan></text>
    <text id="運用" transform="translate(234 7841)" fill="#2c2c2c" font-size="48" font-family="HiraginoSans-W3, Hiragino Sans"><tspan x="0" y="0">運用</tspan></text>
    <text id="広告配信するサービスの市場調査_サービスの競合他社調査_自社サービスの強み分析_" data-name="広告配信するサービスの市場調査、サービスの競合他社調査、自社サービスの強み分析。
" transform="translate(177 7491)" fill="#2c2c2c" font-size="16" font-family="HiraginoSans-W6, Hiragino Sans"><tspan x="0" y="14">広告配信するサービスの市場調</tspan><tspan x="0" y="46">査、サービスの競合他社調査、</tspan><tspan x="0" y="78">自社サービスの強み分析。</tspan><tspan y="78" font-family="DINAlternate-Bold, DIN Alternate" font-weight="700"></tspan><tspan font-family="DINAlternate-Bold, DIN Alternate" font-weight="700"><tspan x="0" y="110"></tspan></tspan></text>
    <text id="どういう人に_どの媒体で_どういう訴求で広告を配信するのかという戦略の設計_" data-name="どういう人に、どの媒体で、どういう訴求で広告を配信するのかという戦略の設計。
" transform="translate(853 7632)" fill="#2c2c2c" font-size="16" font-family="HiraginoSans-W6, Hiragino Sans"><tspan x="0" y="14">どういう人に、どの媒体で、どうい</tspan><tspan x="0" y="46">う訴求で広告を配信するのかという</tspan><tspan x="0" y="78">戦略の設計。</tspan><tspan y="78" font-family="DINAlternate-Bold, DIN Alternate" font-weight="700"></tspan><tspan font-family="DINAlternate-Bold, DIN Alternate" font-weight="700"><tspan x="0" y="110"></tspan></tspan></text>
    <text id="戦略で設計した通りに_各媒体に配信の設定_広告の入稿_" data-name="戦略で設計した通りに、各媒体に配信の設定、広告の入稿。
" transform="translate(805 7990)" fill="#2c2c2c" font-size="16" font-family="HiraginoSans-W6, Hiragino Sans"><tspan x="0" y="14">戦略で設計した通りに、各媒体に</tspan><tspan x="0" y="46">配信の設定、広告の入稿。</tspan><tspan y="46" font-family="DINAlternate-Bold, DIN Alternate" font-weight="700"></tspan><tspan font-family="DINAlternate-Bold, DIN Alternate" font-weight="700"><tspan x="0" y="78"></tspan></tspan></text>
    <text id="目標を達成するために_課題を分析し改善していく_" data-name="目標を達成するために、課題を分析し改善していく。
" transform="translate(234 7898)" fill="#2c2c2c" font-size="16" font-family="HiraginoSans-W6, Hiragino Sans"><tspan x="0" y="14">目標を達成するために、課題</tspan><tspan x="0" y="46">を分析し改善していく。</tspan><tspan y="46" font-family="DINAlternate-Bold, DIN Alternate" font-weight="700"></tspan></text>
    <path id="パス_51" data-name="パス 51" d="M1859,6651h242l144.115,137.5" transform="translate(-1682 815)" fill="none" stroke="#707070" stroke-width="1"/>
    <path id="パス_52" data-name="パス 52" d="M2374.844,6793.5H2787" transform="translate(-1673 815)" fill="none" stroke="#707070" stroke-width="1"/>
    <path id="パス_53" data-name="パス 53" d="M2245.115,6924.825,2126,7058.484H1916" transform="translate(-1682 810)" fill="none" stroke="#707070" stroke-width="1"/>
    <path id="パス_54" data-name="パス 54" d="M2372.068,6916.8,2455,7157.813h198.068" transform="translate(-1682 810)" fill="none" stroke="#707070" stroke-width="1"/>
    <text id="_01" data-name="01" transform="translate(127 7437)" fill="none" stroke="#264ea4" stroke-width="2" font-size="60" font-family="DINAlternate-Bold, DIN Alternate" font-weight="700"><tspan x="0" y="0">01</tspan></text>
    <text id="_02" data-name="02" transform="translate(850 7579)" fill="none" stroke="#264ea4" stroke-width="2" font-size="60" font-family="DINAlternate-Bold, DIN Alternate" font-weight="700"><tspan x="0" y="0">02</tspan></text>
    <text id="_03" data-name="03" transform="translate(804 7939)" fill="none" stroke="#264ea4" stroke-width="2" font-size="60" font-family="DINAlternate-Bold, DIN Alternate" font-weight="700"><tspan x="0" y="0">03</tspan></text>
    <text id="_04" data-name="04" transform="translate(156 7845)" fill="none" stroke="#264ea4" stroke-width="2" font-size="60" font-family="DINAlternate-Bold, DIN Alternate" font-weight="700"><tspan x="0" y="0">04</tspan></text>
  </g>
</svg>
