<svg xmlns="http://www.w3.org/2000/svg" width="590.224" height="222.224" viewBox="0 0 590.224 222.224"><g transform="translate(-620.968 -363.968)"><circle cx="78.568" cy="78.568" r="78.568" transform="translate(620.968 475.08) rotate(-45)" fill="#eb7f7f"/><text transform="translate(690 472)" fill="#fff" font-size="16" font-family="HiraginoSans-W3, Hiragino Sans"><tspan x="0" y="14">プロの広告</tspan><tspan y="14" font-family="Helvetica"></tspan><tspan x="0" y="36">運用スキル</tspan><tspan y="36" font-family="Helvetica"></tspan></text><text transform="translate(688 463)" fill="#2852ab" font-size="27" font-family="Helvetica"><tspan x="0" y="0"> </tspan><tspan y="0" font-size="40" font-family="HelveticaNeue-Bold, Helvetica Neue" font-weight="700">3</tspan><tspan y="0" font-family="HiraginoSans-W3, Hiragino Sans">か月</tspan></text><circle cx="78.568" cy="78.568" r="78.568" transform="translate(804.968 475.08) rotate(-45)" fill="#eb7f7f"/><text transform="translate(876 472)" fill="#fff" font-size="16" font-family="HiraginoSans-W3, Hiragino Sans"><tspan x="0" y="14">実際の案件</tspan><tspan x="0" y="36">を使う授業</tspan><tspan y="36" font-family="Helvetica"></tspan></text><text transform="translate(874 463)" fill="#2852ab" font-size="27" font-family="HiraginoSans-W6, Hiragino Sans"><tspan x="0" y="0">実践型</tspan></text><circle cx="78.568" cy="78.568" r="78.568" transform="translate(988.968 475.08) rotate(-45)" fill="#eb7f7f"/><text transform="translate(1060 472)" fill="#fff" font-size="16" font-family="HiraginoSans-W3, Hiragino Sans"><tspan x="0" y="14">プロの広告</tspan><tspan y="14" font-family="Helvetica"></tspan><tspan x="0" y="36">分析スキル</tspan><tspan y="36" font-family="Helvetica"></tspan></text><text transform="translate(1053 463)" fill="#2852ab" font-size="27" font-family="HiraginoSans-W6, Hiragino Sans"><tspan x="0" y="0">売上</tspan><tspan y="0" font-family="Helvetica-Bold, Helvetica" font-weight="700">UP</tspan></text></g></svg>